Coordinates
version=1
nRows=24
nColumns=24
inDegrees=yes

Units are S.I. units (second, meters, Newtons, ...)
Angles are in degrees.

endheader
time	pelvis_tilt	pelvis_list	pelvis_rotation	pelvis_tx	pelvis_ty	pelvis_tz	hip_flexion_r	hip_adduction_r	hip_rotation_r	knee_angle_r	ankle_angle_r	subtalar_angle_r	mtp_angle_r	hip_flexion_l	hip_adduction_l	hip_rotation_l	knee_angle_l	ankle_angle_l	subtalar_angle_l	mtp_angle_l	lumbar_extension	lumbar_bending	lumbar_rotation
      5.52000000	     -3.42061530	      9.38428858	      9.71684692	     -1.85994427	      0.88250141	      0.24756735	     20.79049485	    -10.04808105	     -4.41599156	    -67.40742598	     -1.05793113	     -9.89394881	      0.00000000	      9.04474034	     15.71361577	      4.68872620	    -13.88263327	     11.73669030	     -6.86189985	      0.00000000	    -17.31770665	    -11.85196550	     -8.44981974
      5.53000000	     -3.45930073	      8.71391040	      9.61391555	     -1.84981284	      0.88437489	      0.24686719	     22.07372821	     -9.31167344	     -4.33353864	    -65.97666407	      0.54151399	     -9.77436332	      0.00000000	      7.85131467	     14.99916198	      5.41891498	    -12.77135443	     11.52482137	     -7.66276292	      0.00000000	    -17.12402230	    -11.15335283	     -8.10176185
      5.54000000	     -3.51052623	      8.05161418	      9.47763812	     -1.83978773	      0.88596548	      0.24627404	     23.27491629	     -8.59144870	     -4.26436767	    -64.23980357	      2.03552036	     -9.60495538	      0.00000000	      6.73041332	     14.27063093	      6.01047373	    -11.73053712	     11.37616147	     -8.34990100	      0.00000000	    -16.96324977	    -10.46005143	     -7.75549715
      5.55000000	     -3.64918926	      7.39041165	      9.32795064	     -1.82988728	      0.88715272	      0.24586159	     24.47823488	     -7.86971096	     -4.18848107	    -62.21083219	      3.34347484	     -9.47453126	      0.00000000	      5.82123787	     13.52314763	      6.19002369	    -10.86304871	     11.46646126	     -8.57939335	      0.00000000	    -16.75383966	     -9.78842234	     -7.44652987
      5.56000000	     -3.65735188	      6.88824632	      9.16854593	     -1.81997086	      0.88821110	      0.24533311	     25.41799786	     -7.34241091	     -4.12325446	    -59.94048668	      4.61553393	     -9.12437425	      0.00000000	      4.68986759	     12.93446308	      6.74940605	     -9.89959684	     11.29447800	     -9.29010572	      0.00000000	    -16.76114199	     -9.22801288	     -7.20682922
      5.57000000	     -3.85018373	      6.41654382	      9.05072802	     -1.81017120	      0.88870029	      0.24498556	     26.46206278	     -6.85520928	     -4.05119213	    -57.41785851	      5.61441263	     -8.92658447	      0.00000000	      3.89838145	     12.37966542	      6.83535805	     -9.18057870	     11.45443784	     -9.41215012	      0.00000000	    -16.60432405	     -8.75334345	     -7.07107896
      5.58000000	     -3.85259637	      6.08341354	      9.02246117	     -1.80031869	      0.88918106	      0.24452851	     27.14078050	     -6.54439069	     -4.06772035	    -54.64016749	      6.50167512	     -8.61778151	      0.00000000	      2.84903318	     11.93810087	      7.21012120	     -8.43726751	     11.52846115	     -9.65825373	      0.00000000	    -16.74680474	     -8.35486078	     -7.10804904
      5.59000000	     -4.08797605	      5.87689027	      8.98495246	     -1.79047369	      0.88896835	      0.24424057	     27.99682670	     -6.35877858	     -3.96066948	    -51.69462270	      7.19676148	     -8.33279812	      0.00000000	      2.11869246	     11.65301261	      7.29925431	     -7.84571497	     11.74833078	     -9.65349415	      0.00000000	    -16.63180846	     -8.17348362	     -7.16621394
      5.60000000	     -4.08998529	      5.76439168	      9.18094671	     -1.78056932	      0.88885848	      0.24373377	     28.39212429	     -6.35932483	     -4.10654532	    -48.47215646	      7.81742457	     -7.95492192	      0.00000000	      1.10666009	     11.42194286	      7.71206995	     -7.28414174	     12.00218376	     -9.59688391	      0.00000000	    -16.88036297	     -8.00084366	     -7.54616785
      5.61000000	     -4.19145951	      5.77390491	      9.39874566	     -1.77056691	      0.88828529	      0.24329655	     28.78091163	     -6.48698027	     -4.17805103	    -45.07386490	      8.33489180	     -7.47232953	      0.00000000	      0.20346936	     11.32388887	      8.09362053	     -6.77883497	     12.28622614	     -9.52372694	      0.00000000	    -17.01229181	     -8.00150210	     -7.95499957
      5.62000000	     -4.28134765	      5.86954779	      9.72157190	     -1.76047331	      0.88746259	      0.24282489	     29.00017278	     -6.73527664	     -4.28583310	    -41.46983131	      8.79038177	     -6.84852686	      0.00000000	     -0.72513820	     11.30078822	      8.57866130	     -6.31171407	     12.59553031	     -9.45649158	      0.00000000	    -17.18851637	     -8.08945291	     -8.50612886
      5.63000000	     -4.41394043	      6.01994546	     10.11654723	     -1.75020055	      0.88631876	      0.24229721	     29.11083252	     -7.08050563	     -4.44183907	    -37.68038115	      9.20935577	     -6.00365207	      0.00000000	     -1.63991877	     11.32800517	      9.11564053	     -5.84403624	     12.94154527	     -9.37195610	      0.00000000	    -17.29337684	     -8.24420537	     -9.08236896
      5.64000000	     -4.42075991	      6.24703705	     10.61576097	     -1.73991010	      0.88516199	      0.24171140	     28.90717518	     -7.50438222	     -4.55753746	    -33.69272535	      9.51450480	     -5.05635647	      0.00000000	     -2.71590952	     11.39255163	      9.83326822	     -5.38640771	     13.23319802	     -9.41047227	      0.00000000	    -17.61064443	     -8.42440596	     -9.90552385
      5.65000000	     -4.52355292	      6.47322160	     11.14682450	     -1.72937498	      0.88363843	      0.24106486	     28.66862561	     -7.97251233	     -4.72374602	    -29.58512425	      9.74862432	     -3.86164807	      0.00000000	     -3.73856111	     11.44900850	     10.54461198	     -4.88267849	     13.59224525	     -9.36408095	      0.00000000	    -17.75130385	     -8.62359771	    -10.64666785
      5.66000000	     -4.55432001	      6.74464778	     11.74309484	     -1.71878106	      0.88206646	      0.24034786	     28.20061799	     -8.49481980	     -4.84983820	    -25.37121316	      9.78611830	     -2.64726981	      0.00000000	     -4.87034652	     11.51148020	     11.31120670	     -4.36678701	     13.92029692	     -9.34115852	      0.00000000	    -18.00509034	     -8.82623361	    -11.52783837
      5.67000000	     -4.57274562	      7.03310828	     12.35505851	     -1.70803135	      0.88035579	      0.23956397	     27.60924997	     -9.05180949	     -4.99152474	    -21.14614894	      9.63180708	     -1.39578788	      0.00000000	     -6.05846555	     11.56049303	     12.04718546	     -3.80879290	     14.23049623	     -9.29291354	      0.00000000	    -18.25194986	     -9.01952645	    -12.42572590
      5.68000000	     -4.52541583	      7.30278010	     12.93077669	     -1.69703910	      0.87860565	      0.23872200	     26.88046740	     -9.59399584	     -5.29128725	    -17.00987922	      9.29321847	     -0.01552948	      0.00000000	     -7.36975020	     11.54754521	     12.72062504	     -3.17031951	     14.49585720	     -9.25205366	      0.00000000	    -18.51433083	     -9.14547669	    -13.31086626
      5.69000000	     -4.48074504	      7.58001364	     13.58083188	     -1.68592055	      0.87678281	      0.23778175	     26.09221111	    -10.18046910	     -5.84756316	    -13.06376151	      8.84318191	      1.39779385	      0.00000000	     -8.67406301	     11.50572931	     13.35935551	     -2.58138294	     14.80715537	     -9.04753698	      0.00000000	    -18.75222180	     -9.24258829	    -14.26352869
      5.70000000	     -4.37308619	      7.83744901	     14.25337478	     -1.67460962	      0.87502586	      0.23682144	     25.21752402	    -10.73677329	     -6.78136138	     -9.42790310	      8.36593418	      2.98474073	      0.00000000	    -10.03395373	     11.39112498	     13.92645663	     -2.03093003	     15.12711029	     -8.72293623	      0.00000000	    -19.01731983	     -9.27152310	    -15.25617482
      5.71000000	     -4.21333146	      8.05509335	     14.94274432	     -1.66310345	      0.87337672	      0.23591197	     24.30010340	    -11.21024107	     -8.06778494	     -6.20189639	      7.93279635	      4.72549271	      0.00000000	    -11.40562632	     11.18436535	     14.42233399	     -1.55909204	     15.44692990	     -8.29784301	      0.00000000	    -19.28682252	     -9.22103149	    -16.28620037
      5.72000000	     -3.99848221	      8.22470858	     15.63422168	     -1.65142278	      0.87190185	      0.23510511	     23.36450662	    -11.56638749	     -9.56928394	     -3.46020349	      7.57892174	      6.49673456	      0.00000000	    -12.75281838	     10.88675492	     14.81975878	     -1.21802307	     15.73126114	     -7.84645998	      0.00000000	    -19.56287944	     -9.08530919	    -17.32405252
      5.73000000	     -3.78022827	      8.33850002	     16.31965858	     -1.63957252	      0.87056503	      0.23446929	     22.47723824	    -11.79878466	    -10.98891747	     -1.23849315	      7.24695163	      7.94442622	      0.00000000	    -14.00177494	     10.50036886	     15.21201412	     -1.03343770	     15.98303627	     -7.37305254	      0.00000000	    -19.78228376	     -8.89436250	    -18.35193738
      5.74000000	     -3.55037825	      8.39465470	     16.98038935	     -1.62755044	      0.86941604	      0.23395524	     21.63952522	    -11.91830385	    -12.21226173	      0.43703027	      6.92604368	      8.93317657	      0.00000000	    -15.13741309	     10.04349554	     15.57843883	     -1.03994492	     16.16720469	     -6.96277490	      0.00000000	    -19.94675812	     -8.63339437	    -19.32182971
      5.75000000	     -3.30157350	      8.38585586	     17.57576213	     -1.61533126	      0.86848366	      0.23357937	     20.86953511	    -11.91868828	    -13.19344468	      1.54259957	      6.57659139	      9.41052427	      0.00000000	    -16.16393183	      9.52074976	     15.93131496	     -1.23234931	     16.25689306	     -6.64617850	      0.00000000	    -20.06058266	     -8.30130315	    -20.18000306
